<?xml version="1.0" standalone="no"?>
<!DOCTYPE svg PUBLIC "-//W3C//DTD SVG 20010904//EN"
 "http://www.w3.org/TR/2001/REC-SVG-20010904/DTD/svg10.dtd">
<svg version="1.0" xmlns="http://www.w3.org/2000/svg"
 width="1024.000000pt" height="1024.000000pt" viewBox="0 0 1024.000000 1024.000000"
 preserveAspectRatio="xMidYMid meet">
<metadata>
Created by potrace 1.11, written by Peter Selinger 2001-2013
</metadata>
<g transform="translate(0.000000,1024.000000) scale(0.100000,-0.100000)"
fill="#000000" stroke="none">
<path d="M4829 10236 c-2 -2 -50 -7 -106 -10 -55 -4 -112 -9 -125 -11 -12 -2
-50 -6 -83 -9 -33 -3 -71 -8 -84 -11 -14 -2 -47 -7 -75 -10 -28 -3 -58 -8 -66
-10 -8 -2 -31 -6 -50 -9 -352 -52 -869 -212 -1240 -383 -317 -146 -675 -356
-901 -527 -37 -28 -80 -60 -95 -71 -15 -11 -32 -24 -38 -30 -6 -5 -45 -37 -86
-69 -41 -33 -77 -62 -80 -65 -3 -4 -41 -37 -85 -76 -301 -262 -636 -648 -866
-1000 -173 -265 -282 -461 -400 -721 -36 -81 -139 -332 -144 -354 -2 -8 -16
-49 -30 -90 -84 -235 -181 -623 -210 -839 -2 -14 -4 -26 -5 -26 -1 0 -3 -13
-5 -30 -2 -16 -7 -48 -10 -70 -3 -22 -8 -60 -10 -85 -3 -25 -8 -61 -10 -80
-20 -172 -28 -713 -13 -905 9 -112 26 -282 33 -315 2 -14 7 -43 10 -65 9 -64
15 -103 37 -215 25 -137 17 -98 83 -370 91 -373 338 -949 558 -1305 121 -195
304 -456 404 -575 298 -357 578 -626 907 -874 129 -97 367 -258 456 -308 25
-14 70 -40 100 -58 64 -38 309 -162 423 -214 316 -145 745 -281 1107 -351 47
-9 92 -18 100 -20 18 -3 140 -22 190 -29 19 -3 62 -8 95 -12 33 -3 71 -8 84
-10 127 -19 741 -27 911 -11 47 4 110 10 140 12 68 6 176 21 300 42 52 8 104
17 115 19 11 2 34 6 50 9 17 3 39 8 50 10 53 9 182 41 292 70 500 137 958 337
1383 607 69 43 134 84 145 91 11 7 22 15 25 18 3 3 40 29 82 58 42 29 139 102
215 163 554 444 996 973 1330 1593 217 402 395 887 489 1329 17 80 26 125 30
151 3 17 9 55 14 85 5 30 12 73 15 95 4 22 8 50 10 63 2 13 7 53 11 90 3 37 8
75 10 84 25 139 25 876 0 1038 -3 14 -7 52 -10 85 -3 33 -8 69 -10 80 -2 11
-7 43 -10 70 -14 95 -18 119 -37 214 -11 53 -22 110 -25 126 -12 65 -67 276
-104 396 -34 113 -51 162 -122 359 -11 30 -28 73 -38 95 -98 223 -136 305
-160 349 -15 28 -51 96 -80 151 -280 530 -725 1075 -1215 1484 -495 413 -1061
729 -1665 930 -85 28 -164 53 -175 56 -11 3 -87 23 -170 45 -82 22 -161 41
-175 44 -26 5 -117 22 -160 31 -72 15 -191 34 -250 40 -30 3 -66 8 -80 10 -14
2 -54 7 -90 10 -36 4 -83 9 -105 11 -47 6 -701 15 -706 10z m3008 -3219 c48
-25 612 -602 629 -643 20 -48 20 -113 0 -156 -9 -18 -836 -853 -1883 -1900
-1710 -1710 -1872 -1868 -1909 -1876 -57 -13 -109 -7 -147 17 -26 16 -883 876
-973 976 -14 17 -70 75 -123 130 -53 55 -177 185 -276 290 -99 104 -219 230
-266 279 -48 50 -109 114 -135 143 -27 28 -119 124 -204 213 -85 89 -163 176
-172 193 -26 47 -32 92 -18 143 14 50 31 69 165 190 50 45 173 156 275 248
102 92 199 175 215 184 38 20 121 20 162 -1 29 -15 158 -143 583 -577 89 -91
290 -297 448 -458 158 -161 302 -302 320 -314 39 -24 120 -27 169 -7 20 9 598
577 1480 1456 797 793 1459 1451 1473 1461 14 11 37 22 50 25 39 8 106 0 137
-16z"/>
</g>
</svg>
